<svg xmlns="http://www.w3.org/2000/svg" xmlns:xlink="http://www.w3.org/1999/xlink" width="50" zoomAndPan="magnify" viewBox="0 0 37.5 37.499999" height="50" preserveAspectRatio="xMidYMid meet" version="1.0"><defs><clipPath id="id1"><path d="M 7 17 L 37.007812 17 L 37.007812 37.007812 L 7 37.007812 Z M 7 17 " clip-rule="nonzero"/></clipPath><clipPath id="id2"><path d="M 18 2.296875 L 24 2.296875 L 24 15 L 18 15 Z M 18 2.296875 " clip-rule="nonzero"/></clipPath><clipPath id="id3"><path d="M 15 2.296875 L 35 2.296875 L 35 37.007812 L 15 37.007812 Z M 15 2.296875 " clip-rule="nonzero"/></clipPath></defs><g clip-path="url(#id1)"><path fill="#ffd59a" d="M 9.515625 37.546875 L 38.546875 37.546875 L 38.546875 17.898438 C 36.570312 20.785156 33.296875 24.289062 28.796875 23.003906 C 28.285156 22.855469 27.695312 22.628906 27.042969 22.347656 C 26.933594 22.300781 26.820312 22.253906 26.707031 22.203125 C 26.058594 21.921875 25.351562 21.597656 24.609375 21.265625 C 24.476562 21.203125 24.339844 21.144531 24.207031 21.085938 L 24.011719 21 C 23.582031 20.8125 23.144531 20.625 22.695312 20.441406 C 18.101562 18.5625 12.660156 17.265625 9.464844 22.574219 C 4.804688 30.324219 9.515625 37.546875 9.515625 37.546875 Z M 9.515625 37.546875 " fill-opacity="1" fill-rule="nonzero"/></g><path fill="#e99566" d="M 16.816406 26.078125 C 16.816406 26.078125 16.84375 26.175781 16.894531 26.351562 C 17.273438 27.679688 18.953125 33.503906 19.582031 34.53125 C 20.199219 35.539062 23.449219 36.601562 24.277344 36.863281 C 24.402344 36.898438 24.472656 36.921875 24.472656 36.921875 C 24.472656 36.921875 24.46875 36.675781 24.441406 36.273438 C 24.367188 35.175781 24.117188 32.910156 23.269531 31.261719 C 22.460938 29.699219 19.652344 27.800781 18.019531 26.792969 C 17.304688 26.351562 16.816406 26.078125 16.816406 26.078125 Z M 16.816406 26.078125 " fill-opacity="1" fill-rule="nonzero"/><path fill="#e99566" d="M 25.558594 32.847656 C 25.558594 32.847656 25.691406 32.839844 25.917969 32.808594 C 26.855469 32.667969 29.449219 32.097656 31.539062 29.890625 C 33.652344 27.65625 34.078125 24.828125 34.164062 23.851562 C 34.183594 23.625 34.183594 23.5 34.183594 23.5 C 34.183594 23.5 34.082031 23.535156 33.90625 23.601562 C 32.871094 23.984375 29.269531 25.402344 28.042969 26.957031 C 26.984375 28.296875 25.941406 31.582031 25.644531 32.566406 C 25.589844 32.746094 25.558594 32.847656 25.558594 32.847656 Z M 25.558594 32.847656 " fill-opacity="1" fill-rule="nonzero"/><path fill="#e99566" d="M 15.832031 13.507812 C 15.832031 13.507812 15.875 13.742188 15.960938 14.117188 C 16.238281 15.324219 16.984375 18.003906 18.351562 19.207031 C 19.304688 20.046875 22.761719 21.078125 23.992188 21.429688 C 24.265625 21.503906 24.429688 21.550781 24.429688 21.550781 C 24.429688 21.550781 24.304688 21.164062 24.089844 20.582031 C 23.601562 19.273438 22.640625 16.972656 21.558594 15.941406 C 20.03125 14.480469 16.894531 13.730469 16.046875 13.550781 C 15.910156 13.523438 15.832031 13.507812 15.832031 13.507812 Z M 15.832031 13.507812 " fill-opacity="1" fill-rule="nonzero"/><g clip-path="url(#id2)"><path fill="#e99566" d="M 18.847656 9.25 C 19.125 10.300781 21.539062 13.503906 22.316406 14.523438 C 22.46875 14.722656 22.558594 14.835938 22.558594 14.835938 C 22.558594 14.835938 22.605469 14.734375 22.683594 14.550781 C 23.046875 13.683594 24.042969 11.03125 23.628906 8.984375 C 23.261719 7.15625 20.605469 4.042969 19.503906 2.816406 C 19.210938 2.492188 19.027344 2.296875 19.027344 2.296875 C 19.027344 2.296875 19.019531 2.410156 19 2.605469 C 18.898438 3.804688 18.550781 8.121094 18.847656 9.25 Z M 18.847656 9.25 " fill-opacity="1" fill-rule="nonzero"/></g><path fill="#e99566" d="M 27.179688 19.261719 C 27.199219 19.515625 27.214844 19.664062 27.214844 19.664062 C 27.214844 19.664062 27.292969 19.640625 27.433594 19.589844 C 28.171875 19.316406 30.59375 18.285156 31.46875 16.210938 C 32.285156 14.277344 33.027344 10.757812 33.273438 9.527344 C 33.328125 9.246094 33.359375 9.085938 33.359375 9.085938 C 33.359375 9.085938 33.21875 9.171875 32.980469 9.324219 C 31.875 10.035156 28.679688 12.171875 27.832031 13.605469 C 26.964844 15.066406 27.097656 18.15625 27.179688 19.261719 Z M 27.179688 19.261719 " fill-opacity="1" fill-rule="nonzero"/><g clip-path="url(#id3)"><path fill="#885b3f" d="M 15.832031 13.507812 C 15.832031 13.507812 15.875 13.742188 15.960938 14.117188 C 16.648438 15.199219 18.164062 16.722656 20.480469 18.660156 C 21.269531 19.320312 22.046875 19.933594 22.695312 20.441406 C 23.230469 20.855469 23.679688 21.195312 23.992188 21.425781 C 24.140625 21.539062 24.261719 21.628906 24.335938 21.683594 C 24.40625 22.003906 24.472656 22.328125 24.535156 22.660156 C 25.265625 26.445312 25.816406 31.800781 24.539062 36.535156 C 24.507812 36.449219 24.476562 36.359375 24.441406 36.273438 C 23.894531 34.804688 23.214844 33.402344 22.40625 32.0625 C 21.652344 30.816406 20.789062 29.652344 19.847656 28.597656 C 19.148438 27.820312 18.515625 27.222656 18.019531 26.792969 C 17.304688 26.351562 16.816406 26.078125 16.816406 26.078125 C 16.816406 26.078125 16.84375 26.175781 16.894531 26.351562 C 17.296875 26.640625 18.351562 27.457031 19.59375 28.847656 C 21.007812 30.429688 22.949219 33.089844 24.277344 36.863281 C 24.308594 36.949219 24.339844 37.039062 24.371094 37.125 C 24.328125 37.269531 24.28125 37.410156 24.234375 37.546875 L 24.609375 37.546875 C 25.054688 36.183594 25.359375 34.6875 25.523438 33.074219 C 25.652344 32.988281 25.785156 32.898438 25.917969 32.808594 C 26.84375 32.164062 27.820312 31.34375 28.824219 30.355469 C 29.746094 29.445312 30.691406 28.394531 31.640625 27.230469 C 32.882812 25.710938 33.800781 24.386719 34.164062 23.851562 C 34.183594 23.625 34.183594 23.5 34.183594 23.5 C 34.183594 23.5 34.082031 23.535156 33.90625 23.601562 C 33.574219 24.09375 32.640625 25.445312 31.363281 27.011719 C 29.960938 28.730469 27.855469 31.050781 25.644531 32.566406 C 25.617188 32.582031 25.589844 32.601562 25.566406 32.621094 C 25.636719 31.785156 25.667969 30.921875 25.664062 30.027344 C 25.660156 29.105469 25.613281 28.148438 25.527344 27.167969 C 26.066406 26.628906 26.542969 25.203125 26.945312 22.933594 C 26.980469 22.734375 27.011719 22.539062 27.042969 22.347656 C 27.257812 21.015625 27.371094 19.878906 27.386719 19.707031 C 27.402344 19.667969 27.417969 19.628906 27.433594 19.589844 C 27.984375 18.144531 29.1875 15.917969 30.925781 13.136719 C 31.929688 11.527344 32.855469 10.140625 33.273438 9.527344 C 33.328125 9.246094 33.359375 9.085938 33.359375 9.085938 C 33.359375 9.085938 33.21875 9.171875 32.980469 9.324219 C 32.5625 9.941406 31.632812 11.332031 30.621094 12.949219 C 28.929688 15.664062 27.773438 17.785156 27.179688 19.261719 C 27.132812 19.378906 27.085938 19.492188 27.046875 19.605469 L 27.039062 19.625 L 27.039062 19.648438 C 27.035156 19.660156 26.925781 20.816406 26.707031 22.203125 C 26.671875 22.421875 26.636719 22.644531 26.597656 22.871094 C 26.203125 25.097656 25.796875 26.160156 25.480469 26.65625 C 25.351562 25.339844 25.152344 23.980469 24.882812 22.589844 C 24.796875 22.132812 24.703125 21.691406 24.609375 21.265625 C 24.222656 19.503906 23.792969 18.007812 23.476562 16.988281 C 23.085938 15.71875 22.777344 14.90625 22.730469 14.789062 C 22.722656 14.753906 22.707031 14.675781 22.683594 14.550781 C 22.546875 13.851562 22.132812 11.804688 21.589844 9.554688 C 21.199219 7.929688 20.816406 6.515625 20.453125 5.359375 C 20.117188 4.300781 19.800781 3.449219 19.503906 2.816406 C 19.210938 2.492188 19.027344 2.296875 19.027344 2.296875 C 19.027344 2.296875 19.019531 2.410156 19 2.609375 C 19.648438 3.804688 20.421875 6.222656 21.246094 9.636719 C 21.765625 11.785156 22.164062 13.75 22.316406 14.523438 C 22.359375 14.742188 22.382812 14.863281 22.386719 14.871094 L 22.386719 14.886719 L 22.394531 14.902344 C 22.398438 14.910156 22.71875 15.734375 23.140625 17.101562 C 23.410156 17.960938 23.753906 19.164062 24.089844 20.582031 C 24.128906 20.746094 24.167969 20.914062 24.207031 21.085938 L 24.222656 21.15625 C 24.15625 21.109375 24.085938 21.054688 24.011719 21 C 23.28125 20.449219 22.015625 19.480469 20.707031 18.386719 C 18.148438 16.25 16.542969 14.582031 16.046875 13.550781 C 15.910156 13.523438 15.832031 13.507812 15.832031 13.507812 Z M 15.832031 13.507812 " fill-opacity="1" fill-rule="nonzero"/></g></svg>