<svg xmlns="http://www.w3.org/2000/svg" xmlns:xlink="http://www.w3.org/1999/xlink" width="1400" zoomAndPan="magnify" viewBox="0 0 1050 442.499987" height="590" preserveAspectRatio="xMidYMid meet" version="1.0"><defs><clipPath id="id1"><path d="M 0.59375 0 L 1049.40625 0 L 1049.40625 442 L 0.59375 442 Z M 0.59375 0 " clip-rule="nonzero"/></clipPath><clipPath id="id2"><path d="M 893 343 L 1049.207031 343 L 1049.207031 442 L 893 442 Z M 893 343 " clip-rule="nonzero"/></clipPath><clipPath id="id3"><path d="M 949 265.199219 L 976 265.199219 L 976 329 L 949 329 Z M 949 265.199219 " clip-rule="nonzero"/></clipPath><clipPath id="id4"><path d="M 935 265.199219 L 1028 265.199219 L 1028 442 L 935 442 Z M 935 265.199219 " clip-rule="nonzero"/></clipPath></defs><g clip-path="url(#id1)"><path fill="#ffffff" d="M 0.59375 0 L 1049.40625 0 L 1049.40625 449.492188 L 0.59375 449.492188 Z M 0.59375 0 " fill-opacity="1" fill-rule="nonzero"/><path fill="#ffffff" d="M 0.59375 0 L 1049.40625 0 L 1049.40625 442 L 0.59375 442 Z M 0.59375 0 " fill-opacity="1" fill-rule="nonzero"/><path fill="#ffffff" d="M 0.59375 0 L 1049.40625 0 L 1049.40625 442 L 0.59375 442 Z M 0.59375 0 " fill-opacity="1" fill-rule="nonzero"/></g><g clip-path="url(#id2)"><path fill="#ffd59a" d="M 903.722656 441.992188 L 1049.394531 441.992188 L 1049.394531 343.445312 C 1039.496094 357.929688 1023.0625 375.492188 1000.480469 369.046875 C 997.917969 368.3125 994.953125 367.164062 991.679688 365.769531 C 991.128906 365.53125 990.566406 365.289062 989.996094 365.042969 C 986.734375 363.617188 983.195312 361.992188 979.464844 360.328125 C 978.796875 360.027344 978.121094 359.730469 977.441406 359.429688 L 976.464844 358.996094 C 974.3125 358.054688 972.105469 357.113281 969.863281 356.195312 C 946.804688 346.789062 919.511719 340.277344 903.476562 366.902344 C 880.085938 405.757812 903.722656 441.992188 903.722656 441.992188 Z M 903.722656 441.992188 " fill-opacity="1" fill-rule="nonzero"/></g><path fill="#e99566" d="M 940.363281 384.480469 C 940.363281 384.480469 940.5 384.964844 940.75 385.835938 C 942.652344 392.5 951.089844 421.714844 954.238281 426.859375 C 957.332031 431.921875 973.636719 437.257812 977.808594 438.554688 C 978.433594 438.746094 978.785156 438.847656 978.785156 438.847656 C 978.785156 438.847656 978.765625 437.617188 978.628906 435.597656 C 978.253906 430.09375 976.988281 418.726562 972.734375 410.476562 C 968.691406 402.625 954.59375 393.109375 946.394531 388.046875 C 942.816406 385.839844 940.363281 384.480469 940.363281 384.480469 Z M 940.363281 384.480469 " fill-opacity="1" fill-rule="nonzero"/><path fill="#e99566" d="M 984.238281 418.429688 C 984.238281 418.429688 984.890625 418.390625 986.039062 418.21875 C 990.738281 417.519531 1003.753906 414.660156 1014.238281 403.589844 C 1024.847656 392.390625 1026.984375 378.207031 1027.410156 373.300781 C 1027.511719 372.175781 1027.519531 371.539062 1027.519531 371.539062 C 1027.519531 371.539062 1027.007812 371.714844 1026.109375 372.050781 C 1020.921875 373.972656 1002.84375 381.082031 996.6875 388.871094 C 991.375 395.59375 986.152344 412.066406 984.660156 417.007812 C 984.386719 417.910156 984.238281 418.429688 984.238281 418.429688 Z M 984.238281 418.429688 " fill-opacity="1" fill-rule="nonzero"/><path fill="#e99566" d="M 935.429688 321.425781 C 935.429688 321.425781 935.636719 322.597656 936.070312 324.488281 C 937.457031 330.542969 941.195312 343.96875 948.058594 350.003906 C 952.855469 354.226562 970.199219 359.402344 976.363281 361.148438 C 977.738281 361.539062 978.558594 361.757812 978.558594 361.757812 C 978.558594 361.757812 977.941406 359.816406 976.859375 356.910156 C 974.410156 350.332031 969.578125 338.8125 964.152344 333.625 C 956.5 326.308594 940.75 322.554688 936.503906 321.644531 C 935.816406 321.496094 935.429688 321.425781 935.429688 321.425781 Z M 935.429688 321.425781 " fill-opacity="1" fill-rule="nonzero"/><g clip-path="url(#id3)"><path fill="#e99566" d="M 950.5625 300.078125 C 951.949219 305.339844 964.050781 321.414062 967.964844 326.519531 C 968.730469 327.511719 969.179688 328.089844 969.179688 328.089844 C 969.179688 328.089844 969.417969 327.574219 969.804688 326.652344 C 971.617188 322.3125 976.621094 309.007812 974.550781 298.746094 C 972.695312 289.574219 959.367188 273.96875 953.84375 267.8125 C 952.378906 266.175781 951.460938 265.207031 951.460938 265.207031 C 951.460938 265.207031 951.410156 265.773438 951.324219 266.757812 C 950.800781 272.761719 949.066406 294.414062 950.5625 300.078125 Z M 950.5625 300.078125 " fill-opacity="1" fill-rule="nonzero"/></g><path fill="#e99566" d="M 992.363281 350.28125 C 992.457031 351.558594 992.539062 352.308594 992.539062 352.308594 C 992.539062 352.308594 992.9375 352.183594 993.628906 351.929688 C 997.34375 350.558594 1009.488281 345.378906 1013.882812 334.980469 C 1017.980469 325.285156 1021.703125 307.644531 1022.9375 301.460938 C 1023.214844 300.058594 1023.367188 299.246094 1023.367188 299.246094 C 1023.367188 299.246094 1022.660156 299.683594 1021.472656 300.449219 C 1015.933594 304.011719 999.882812 314.730469 995.632812 321.910156 C 991.285156 329.25 991.960938 344.734375 992.363281 350.28125 Z M 992.363281 350.28125 " fill-opacity="1" fill-rule="nonzero"/><g clip-path="url(#id4)"><path fill="#885b3f" d="M 935.429688 321.425781 C 935.429688 321.425781 935.636719 322.597656 936.070312 324.488281 C 939.519531 329.914062 947.125 337.554688 958.753906 347.265625 C 962.71875 350.574219 966.597656 353.660156 969.863281 356.195312 C 972.542969 358.273438 974.808594 359.984375 976.363281 361.144531 C 977.121094 361.710938 977.714844 362.148438 978.101562 362.433594 C 978.445312 364.03125 978.777344 365.664062 979.097656 367.335938 C 982.753906 386.308594 985.515625 413.160156 979.117188 436.921875 C 978.957031 436.480469 978.792969 436.039062 978.628906 435.597656 C 975.882812 428.242188 972.476562 421.207031 968.414062 414.488281 C 964.621094 408.238281 960.296875 402.386719 955.566406 397.105469 C 952.074219 393.203125 948.894531 390.207031 946.394531 388.050781 C 942.816406 385.839844 940.363281 384.480469 940.363281 384.480469 C 940.363281 384.480469 940.5 384.964844 940.746094 385.835938 C 942.765625 387.292969 948.066406 391.390625 954.289062 398.351562 C 961.390625 406.289062 971.132812 419.628906 977.808594 438.554688 C 977.960938 438.992188 978.117188 439.433594 978.265625 439.878906 C 978.050781 440.589844 977.824219 441.292969 977.589844 441.996094 L 979.464844 441.996094 C 981.699219 435.148438 983.230469 427.640625 984.050781 419.550781 C 984.707031 419.128906 985.371094 418.683594 986.039062 418.222656 C 990.6875 415 995.578125 410.871094 1000.605469 405.914062 C 1005.234375 401.355469 1009.992188 396.085938 1014.75 390.257812 C 1020.980469 382.621094 1025.59375 375.992188 1027.410156 373.300781 C 1027.511719 372.175781 1027.519531 371.539062 1027.519531 371.539062 C 1027.519531 371.539062 1027.007812 371.714844 1026.109375 372.050781 C 1024.445312 374.519531 1019.765625 381.296875 1013.359375 389.144531 C 1006.316406 397.769531 995.761719 409.40625 984.660156 417.007812 C 984.527344 417.097656 984.394531 417.1875 984.261719 417.277344 C 984.613281 413.089844 984.777344 408.757812 984.753906 404.277344 C 984.730469 399.644531 984.503906 394.859375 984.082031 389.929688 C 986.785156 387.234375 989.175781 380.089844 991.191406 368.691406 C 991.367188 367.703125 991.53125 366.726562 991.683594 365.769531 C 992.753906 359.085938 993.328125 353.386719 993.414062 352.507812 C 993.480469 352.320312 993.554688 352.125 993.628906 351.929688 C 996.402344 344.679688 1002.449219 333.519531 1011.152344 319.574219 C 1016.195312 311.492188 1020.847656 304.546875 1022.9375 301.457031 C 1023.214844 300.058594 1023.367188 299.246094 1023.367188 299.246094 C 1023.367188 299.246094 1022.660156 299.679688 1021.472656 300.445312 C 1019.375 303.542969 1014.707031 310.519531 1009.640625 318.628906 C 1001.144531 332.242188 995.335938 342.871094 992.363281 350.28125 C 992.125 350.875 991.902344 351.449219 991.699219 352.003906 L 991.660156 352.109375 L 991.648438 352.226562 C 991.644531 352.292969 991.097656 358.074219 989.996094 365.042969 C 989.824219 366.136719 989.636719 367.257812 989.433594 368.394531 C 987.460938 379.5625 985.433594 384.875 983.84375 387.367188 C 983.1875 380.773438 982.1875 373.957031 980.839844 366.96875 C 980.402344 364.6875 979.941406 362.46875 979.46875 360.328125 C 977.515625 351.496094 975.378906 344 973.792969 338.886719 C 971.8125 332.507812 970.269531 328.449219 970.039062 327.847656 C 970.007812 327.683594 969.929688 327.277344 969.804688 326.65625 C 969.117188 323.152344 967.042969 312.875 964.316406 301.59375 C 962.347656 293.445312 960.421875 286.367188 958.601562 280.566406 C 956.933594 275.246094 955.339844 270.976562 953.847656 267.816406 C 952.378906 266.179688 951.464844 265.210938 951.464844 265.210938 C 951.464844 265.210938 951.410156 265.777344 951.324219 266.761719 C 954.570312 272.761719 958.449219 284.886719 962.585938 302.007812 C 965.191406 312.785156 967.199219 322.644531 967.96875 326.519531 C 968.183594 327.617188 968.300781 328.234375 968.308594 328.261719 L 968.324219 328.339844 L 968.351562 328.417969 C 968.367188 328.460938 969.980469 332.601562 972.101562 339.445312 C 973.441406 343.765625 975.179688 349.800781 976.859375 356.910156 C 977.058594 357.734375 977.25 358.574219 977.445312 359.429688 L 977.523438 359.789062 C 977.203125 359.546875 976.847656 359.28125 976.464844 358.996094 C 972.796875 356.238281 966.453125 351.375 959.886719 345.890625 C 947.054688 335.175781 938.996094 326.816406 936.503906 321.640625 C 935.816406 321.496094 935.429688 321.425781 935.429688 321.425781 Z M 935.429688 321.425781 " fill-opacity="1" fill-rule="nonzero"/></g></svg>