<svg xmlns="http://www.w3.org/2000/svg" version="1.1" xmlns:xlink="http://www.w3.org/1999/xlink" xmlns:svgjs="http://svgjs.dev/svgjs" viewBox="0 0 800 800"><g fill="#7fb77e"><path d="M520 411H570C598 411 620 433 620 461H570C542 461 520 439 520 411Z " transform="matrix(0.10091584776909049,-0.5191670299155245,0.5191670299155245,0.10091584776909049,286.12114172844974,687.9258974245256)" opacity="0.81"></path><path d="M412 212H462C490 212 512 234 512 262H462C434 262 412 240 412 212Z " transform="matrix(0.3683087299547692,-0.438933252107407,0.438933252107407,0.3683087299547692,187.81418601144117,352.49799347434174)" opacity="0.88"></path><path d="M642 338H692C720 338 742 360 742 388H692C664 388 642 366 642 338Z " transform="matrix(-0.172165768881192,-0.44850716182699313,0.44850716182699313,-0.172165768881192,648.3306123225864,735.8631300881518)" opacity="0.74"></path><path d="M142 680H192C220 680 242 702 242 730H192C164 730 142 708 142 680Z " transform="matrix(0.6368025088015449,-0.06693064070285054,0.06693064070285054,0.6368025088015449,22.547816614593756,268.90491430985816)" opacity="0.99"></path><path d="M98 77H148C176 77 198 99 198 127H148C120 127 98 105 98 77Z " transform="matrix(0.48099993647582623,-0.34946690981756495,0.34946690981756495,0.48099993647582623,41.16638460018609,104.65910913246535)" opacity="0.91"></path><path d="M649 586H699C727 586 749 608 749 636H699C671 636 649 614 649 586Z " transform="matrix(-0.172165768881192,-0.44850716182699313,0.44850716182699313,-0.172165768881192,545.3059965716604,1029.6997909034765)" opacity="0.74"></path><path d="M193 138H243C271 138 293 160 293 188H243C215 188 193 166 193 138Z " transform="matrix(0.6244314776038452,-0.11010411710521209,0.11010411710521209,0.6244314776038452,73.31617985411606,87.97296960713977)" opacity="0.98"></path><path d="M201 569H251C279 569 301 591 301 619H251C223 619 201 597 201 569Z " transform="matrix(0.637577962173045,-0.06701214413644625,0.06701214413644625,0.637577962173045,51.162717877516656,232.09873864745936)" opacity="0.99"></path><path d="M717 635H767C795 635 817 657 817 685H767C739 685 717 663 717 635Z " transform="matrix(-0.34513552434827216,-0.2600782722069918,0.2600782722069918,-0.34513552434827216,860.0672875185102,1087.2694808526223)" opacity="0.66"></path><path d="M-13 666H37C65 666 87 688 87 716H37C9 716 -13 694 -13 666Z " transform="matrix(0.33353510281026255,-0.4590716853505397,0.4590716853505397,0.33353510281026255,-292.5593333812027,477.5128963160786)" opacity="0.87"></path><path d="M121 535H171C199 535 221 557 221 585H171C143 585 121 563 121 535Z " transform="matrix(0.6308848856745909,-0.08866508843383009,0.08866508843383009,0.6308848856745909,13.466235026700105,221.866194144414)" opacity="0.98"></path><path d="M651 10H701C729 10 751 32 751 60H701C673 60 651 38 651 10Z " transform="matrix(-0.26364813020032823,-0.3765285516268839,0.3765285516268839,-0.26364813020032823,872.6388399634891,308.1741992474571)" opacity="0.71"></path><path d="M223 655H273C301 655 323 677 323 705H273C245 705 223 683 223 655Z " transform="matrix(0.632276990852691,-0.08886073605755379,0.08886073605755379,0.632276990852691,39.96308097807878,274.3106271638824)" opacity="0.98"></path><path d="M318 467H368C396 467 418 489 418 517H368C340 517 318 495 318 467Z " transform="matrix(0.5361855935859234,-0.285094937230644,0.285094937230644,0.5361855935859234,30.416992442903336,333.11162485660265)" opacity="0.93"></path><path d="M205 207H255C283 207 305 229 305 257H255C227 257 205 235 205 207Z " transform="matrix(0.637577962173045,-0.06701214413644625,0.06701214413644625,0.637577962173045,76.87080220621803,101.17000953064738)" opacity="0.99"></path><path d="M711 317H761C789 317 811 339 811 367H761C733 367 711 345 711 317Z " transform="matrix(-0.31822880870223513,-0.3073099883839762,0.3073099883839762,-0.31822880870223513,898.0721073950809,684.6971537363702)" opacity="0.68"></path><path d="M135 610H185C213 610 235 632 235 660H185C157 660 135 638 135 610Z " transform="matrix(0.6368025088015449,-0.06693064070285054,0.06693064070285054,0.6368025088015449,24.690579025404105,243.01257544104635)" opacity="0.99"></path><path d="M228 6H278C306 6 328 28 328 56H278C250 56 228 34 228 6Z " transform="matrix(0.3427131070799827,-0.45479565405193256,0.45479565405193256,0.3427131070799827,168.6270909561549,146.80908550695779)" opacity="0.88"></path><path d="M340 240H390C418 240 440 262 440 290H390C362 290 340 268 340 240Z " transform="matrix(0.5092933776611186,-0.31824182283081626,0.31824182283081626,0.5092933776611186,107.04149966199742,254.15156582382193)" opacity="0.92"></path><path d="M133 407H183C211 407 233 429 233 457H183C155 457 133 435 133 407Z " transform="matrix(0.6308848856745909,-0.08866508843383009,0.08866508843383009,0.6308848856745909,29.244747718135272,175.68344057196765)" opacity="0.98"></path><path d="M124 157H174C202 157 224 179 224 207H174C146 207 124 185 124 157Z " transform="matrix(0.6222486445295591,-0.12095288388418189,0.12095288388418189,0.6222486445295591,43.71531098493563,89.79654849146792)" opacity="0.98"></path><path d="M600 278H650C678 278 700 300 700 328H650C622 328 600 306 600 278Z " transform="matrix(-0.09470890178291169,-0.4872350610154143,0.4872350610154143,-0.09470890178291169,563.928562671222,648.3995869002416)" opacity="0.76"></path><path d="M660 248H710C738 248 760 270 760 298H710C682 298 660 276 660 248Z " transform="matrix(-0.21409424597229637,-0.4201836163134325,0.4201836163134325,-0.21409424597229637,747.2967873867634,629.7780967329738)" opacity="0.72"></path><path d="M527 603H577C605 603 627 625 627 653H577C549 653 527 631 527 603Z " transform="matrix(0.10091584776909049,-0.5191670299155245,0.5191670299155245,0.10091584776909049,192.73466105028535,864.1842238622688)" opacity="0.81"></path><path d="M-10 505H40C68 505 90 527 90 555H40C12 555 -10 533 -10 505Z " transform="matrix(0.33353510281026255,-0.4590716853505397,0.4590716853505397,0.33353510281026255,-216.64939734819654,371.58926292458244)" opacity="0.87"></path><path d="M489 344H539C567 344 589 366 589 394H539C511 394 489 372 489 344Z " transform="matrix(0.17610203866537424,-0.5114374562728689,0.5114374562728689,0.17610203866537424,255.36057979467472,579.6831366635531)" opacity="0.83"></path><path d="M341 -1H391C419 -1 441 21 441 49H391C363 49 341 27 341 -1Z " transform="matrix(0.2603388355607537,-0.48962613799655674,0.48962613799655674,0.2603388355607537,277.45648798382797,209.19568790319556)" opacity="0.85"></path><path d="M266 274H316C344 274 366 296 366 324H316C288 324 266 302 266 274Z " transform="matrix(0.6144253669866245,-0.14185127305786252,0.14185127305786252,0.6144253669866245,79.42805338792576,160.1118175572838)" opacity="0.97"></path><path d="M430 5H480C508 5 530 27 530 55H480C452 55 430 33 430 5Z " transform="matrix(0.14783382903169603,-0.5155578306534438,0.5155578306534438,0.14783382903169603,393.57302714518255,273.0327438427022)" opacity="0.82"></path><path d="M337 535H387C415 535 437 557 437 585H387C359 585 337 563 337 535Z " transform="matrix(0.5092933776611186,-0.31824182283081626,0.31824182283081626,0.5092933776611186,11.688042059889995,397.9552939452995)" opacity="0.92"></path><path d="M420 539H470C498 539 520 561 520 589H470C442 589 420 567 420 539Z " transform="matrix(0.3247950571679671,-0.46385541349412335,0.46385541349412335,0.3247950571679671,55.731869920369945,598.8276320995045)" opacity="0.87"></path><path d="M559 479H609C637 479 659 501 659 529H609C581 529 559 507 559 479Z " transform="matrix(0.0270404645527935,-0.5159628002315211,0.5159628002315211,0.0270404645527935,332.48710577066214,804.5929512063885)" opacity="0.79"></path><path d="M714 547H764C792 547 814 569 814 597H764C736 597 714 575 714 547Z " transform="matrix(-0.31822880870223513,-0.3073099883839762,0.3073099883839762,-0.31822880870223513,831.3454964928732,988.8117097030363)" opacity="0.68"></path><path d="M69 467H119C147 467 169 489 169 517H119C91 517 69 495 69 467Z " transform="matrix(0.5825986226453082,-0.21204855716737955,0.21204855716737955,0.5825986226453082,-54.65712622114242,230.59525596142652)" opacity="0.95"></path><path d="M205 355H255C283 355 305 377 305 405H255C227 405 205 383 205 355Z " transform="matrix(0.637577962173045,-0.06701214413644625,0.06701214413644625,0.637577962173045,66.95300487402397,154.80847112903672)" opacity="0.99"></path><path d="M603 207H653C681 207 703 229 703 257H653C625 257 603 235 603 207Z " transform="matrix(-0.09470890178291169,-0.4872350610154143,0.4872350610154143,-0.09470890178291169,601.8063787086652,572.1369600567011)" opacity="0.76"></path><path d="M56 562H106C134 562 156 584 156 612H106C78 612 56 590 56 562Z " transform="matrix(0.5545109720412948,-0.25857271279382854,0.25857271279382854,0.5545109720412948,-104.56034544635463,288.9107669679058)" opacity="0.94"></path><path d="M715 467H765C793 467 815 489 815 517H765C737 517 715 495 715 467Z " transform="matrix(-0.31822880870223513,-0.3073099883839762,0.3073099883839762,-0.31822880870223513,857.2485243722936,883.6607149952415)" opacity="0.68"></path><path d="M250 506H300C328 506 350 528 350 556H300C272 556 250 534 250 506Z " transform="matrix(0.6144253669866245,-0.14185127305786252,0.14185127305786252,0.6144253669866245,40.34936391028765,247.2955120474611)" opacity="0.97"></path><path d="M193 281H243C271 281 293 303 293 331H243C215 331 193 309 193 281Z " transform="matrix(0.6401996436817856,-0.056010211215492274,0.056010211215492274,0.6401996436817856,70.29236195338544,123.7093903587382)" opacity="0.99"></path><path d="M448 152H498C526 152 548 174 548 202H498C470 202 448 180 448 152Z " transform="matrix(0.2512873355572913,-0.49317916466513817,0.49317916466513817,0.2512873355572913,285.5661947467395,378.12536560959825)" opacity="0.85"></path><path d="M411 346H461C489 346 511 368 511 396H461C433 396 411 374 411 346Z " transform="matrix(0.3683087299547692,-0.438933252107407,0.438933252107407,0.3683087299547692,128.36543895900337,436.70569040829525)" opacity="0.88"></path><path d="M714 123H764C792 123 814 145 814 173H764C736 173 714 151 714 123Z " transform="matrix(-0.33808927327596766,-0.2737792952933822,0.2737792952933822,-0.33808927327596766,981.7808690794187,407.2045940489872)" opacity="0.67"></path><path d="M568 731H618C646 731 668 753 668 781H618C590 781 568 759 568 731Z " transform="matrix(-0.00890535590011434,-0.510187497825808,0.510187497825808,-0.00890535590011434,237.80176158995977,1078.0283227168359)" opacity="0.78"></path><path d="M722 254H772C800 254 822 276 822 304H772C744 304 722 282 722 254Z " transform="matrix(-0.34513552434827216,-0.2600782722069918,0.2600782722069918,-0.34513552434827216,965.8827868511154,576.0732374369657)" opacity="0.66"></path><path d="M242 79H292C320 79 342 101 342 129H292C264 129 242 107 242 79Z " transform="matrix(0.5355076815406411,-0.28473448500233045,0.28473448500233045,0.5355076815406411,106.01937054989043,131.44967074045383)" opacity="0.93"></path><path d="M716 729H766C794 729 816 751 816 779H766C738 779 716 757 716 729Z " transform="matrix(-0.31822880870223513,-0.3073099883839762,0.3073099883839762,-0.31822880870223513,778.051536224394,1229.343972863611)" opacity="0.68"></path><path d="M259 734H309C337 734 359 756 359 784H309C281 784 259 762 259 734Z " transform="matrix(0.6144253669866245,-0.14185127305786252,0.14185127305786252,0.6144253669866245,11.477445350215362,336.48318983203154)" opacity="0.97"></path><path d="M209 432H259C287 432 309 454 309 482H259C231 482 209 460 209 432Z " transform="matrix(0.637577962173045,-0.06701214413644625,0.06701214413644625,0.637577962173045,63.24275792682539,182.98301661825803)" opacity="0.99"></path><path d="M482 212H532C560 212 582 234 582 262H532C504 262 482 240 482 212Z " transform="matrix(0.2137399995029111,-0.5035398835001013,0.5035398835001013,0.2137399995029111,298.9513678749273,454.22683813986384)" opacity="0.84"></path></g><g fill="none" stroke-width="3" stroke="#7fb77e"><path d="M652 671H702C730 671 752 693 752 721H702C674 721 652 699 652 671Z " transform="matrix(-0.21409424597229637,-0.4201836163134325,0.4201836163134325,-0.21409424597229637,559.846363718403,1139.978493848748)" opacity="0.72"></path><path d="M61 652H111C139 652 161 674 161 702H111C83 702 61 680 61 652Z " transform="matrix(0.5545109720412948,-0.25857271279382854,0.25857271279382854,0.5545109720412948,-125.60444445800564,330.2976430481583)" opacity="0.94"></path><path d="M142 7H192C220 7 242 29 242 57H192C164 57 142 35 142 7Z " transform="matrix(0.25166980268485023,-0.4939297986676957,0.4939297986676957,0.25166980268485023,127.87364432714249,118.78108765828236)" opacity="0.85"></path><path d="M171 71H221C249 71 271 93 271 121H221C193 121 171 99 171 71Z " transform="matrix(0.5357796138486849,-0.2848790739752908,0.2848790739752908,0.5357796138486849,75.24431423781272,107.52343241906551)" opacity="0.93"></path><path d="M542 191H592C620 191 642 213 642 241H592C564 241 542 219 542 191Z " transform="matrix(0.06371869628476347,-0.5189471364820105,0.5189471364820105,0.06371869628476347,442.1859503193058,509.4534663998413)" opacity="0.80"></path><path d="M658 416H708C736 416 758 438 758 466H708C680 466 658 444 658 416Z " transform="matrix(-0.21409424597229637,-0.4201836163134325,0.4201836163134325,-0.21409424597229637,674.2777513541621,832.9055628236929)" opacity="0.72"></path><path d="M283 203H333C361 203 383 225 383 253H333C305 253 283 231 283 203Z " transform="matrix(0.6012858326789793,-0.17241593804284036,0.17241593804284036,0.6012858326789793,93.4609838441323,148.32133751745857)" opacity="0.96"></path><path d="M512 127H562C590 127 612 149 612 177H562C534 177 512 155 512 127Z " transform="matrix(0.07298904397480965,-0.5193440335641302,0.5193440335641302,0.07298904397480965,442.03986418440917,432.77701217887005)" opacity="0.81"></path><path d="M534 268H584C612 268 634 290 634 318H584C556 318 534 296 534 268Z " transform="matrix(0.06371869628476347,-0.5189471364820105,0.5189471364820105,0.06371869628476347,394.73677038046907,577.3955496940584)" opacity="0.80"></path><path d="M636 80H686C714 80 736 102 736 130H686C658 130 636 108 636 80Z " transform="matrix(-0.22675620880006606,-0.40907902947961766,0.40907902947961766,-0.22675620880006606,798.6014611414855,409.43761614702464)" opacity="0.72"></path><path d="M280 589H330C358 589 380 611 380 639H330C302 639 280 617 280 589Z " transform="matrix(0.6012858326789793,-0.17241593804284036,0.17241593804284036,0.6012858326789793,25.712289257632847,301.70775828924405)" opacity="0.96"></path><path d="M312 664H362C390 664 412 686 412 714H362C334 714 312 692 312 664Z " transform="matrix(0.5606807606213658,-0.24963115792924073,0.24963115792924073,0.5606807606213658,-12.962303158181328,393.05743510226404)" opacity="0.94"></path><path d="M-14 253H36C64 253 86 275 86 303H36C8 303 -14 281 -14 253Z " transform="matrix(0.33353510281026255,-0.4590716853505397,0.4590716853505397,0.33353510281026255,-103.6291922286195,201.80382209136644)" opacity="0.87"></path><path d="M128 326H178C206 326 228 348 228 376H178C150 376 128 354 128 326Z " transform="matrix(0.6308848856745909,-0.08866508843383009,0.08866508843383009,0.6308848856745909,34.58104430964846,145.34179086944036)" opacity="0.98"></path><path d="M586 132H636C664 132 686 154 686 182H636C608 182 586 160 586 132Z " transform="matrix(-0.09457368652502633,-0.4865394388174397,0.4865394388174397,-0.09457368652502633,619.7621727355787,481.2871518723208)" opacity="0.76"></path><path d="M399 278H449C477 278 499 300 499 328H449C421 328 399 306 399 278Z " transform="matrix(0.40278415138673174,-0.41709519867537137,0.41709519867537137,0.40278415138673174,141.77007082871995,368.232146335062)" opacity="0.89"></path><path d="M-4 739H46C74 739 96 761 96 789H46C18 789 -4 767 -4 739Z " transform="matrix(0.33353510281026255,-0.4590716853505397,0.4590716853505397,0.33353510281026255,-320.0733823370844,530.2964789790842)" opacity="0.87"></path><path d="M407 673H457C485 673 507 695 507 723H457C429 723 407 701 407 673Z " transform="matrix(0.3683087299547692,-0.438933252107407,0.438933252107407,0.3683087299547692,-17.692499560299666,641.5130027046561)" opacity="0.88"></path><path d="M164 485H214C242 485 264 507 264 535H214C186 535 164 513 164 485Z " transform="matrix(0.6398568454418911,-0.05598022025562487,0.05598022025562487,0.6398568454418911,48.52072274506662,195.65277595933924)" opacity="0.99"></path><path d="M-11 423H39C67 423 89 445 89 473H39C11 473 -11 451 -11 423Z " transform="matrix(0.33353510281026255,-0.4590716853505397,0.4590716853505397,0.33353510281026255,-179.67198404664202,316.4800696696734)" opacity="0.87"></path><path d="M393 468H443C471 468 493 490 493 518H443C415 518 393 496 393 468Z " transform="matrix(0.40278415138673174,-0.41709519867537137,0.41709519867537137,0.40278415138673174,58.93868798871978,479.20058637953076)" opacity="0.89"></path><path d="M340 315H390C418 315 440 337 440 365H390C362 365 340 343 340 315Z " transform="matrix(0.5092933776611186,-0.31824182283081626,0.31824182283081626,0.5092933776611186,83.17336294968618,290.954562499238)" opacity="0.92"></path><path d="M357 165H407C435 165 457 187 457 215H407C379 215 357 193 357 165Z " transform="matrix(0.4741331407682156,-0.3572849485138471,0.3572849485138471,0.4741331407682156,146.1436714897053,245.3296772991748)" opacity="0.91"></path><path d="M718 4H768C796 4 818 26 818 54H768C740 54 718 32 718 4Z " transform="matrix(-0.3710361116048529,-0.18905234154412745,0.18905234154412745,-0.3710361116048529,1047.4732158077472,184.9522455424306)" opacity="0.64"></path><path d="M-13 588H37C65 588 87 610 87 638H37C9 638 -13 616 -13 588Z " transform="matrix(0.33353510281026255,-0.4590716853505397,0.4590716853505397,0.33353510281026255,-256.75174192386055,425.52863433527904)" opacity="0.87"></path><path d="M464 280H514C542 280 564 302 564 330H514C486 330 464 308 464 280Z " transform="matrix(0.2511832638449979,-0.49297491242926517,0.49297491242926517,0.2511832638449979,234.5344540927452,481.778209515918)" opacity="0.85"></path><path d="M340 737H390C418 737 440 759 440 787H390C362 787 340 765 340 737Z " transform="matrix(0.5092933776611186,-0.31824182283081626,0.31824182283081626,0.5092933776611186,-51.12468628491831,498.032757126246)" opacity="0.92"></path><path d="M328 100H378C406 100 428 122 428 150H378C350 150 328 128 328 100Z " transform="matrix(0.4271895055828818,-0.39836065859572595,0.39836065859572595,0.4271895055828818,166.72728456520494,222.18164075132415)" opacity="0.90"></path><path d="M-13 338H37C65 338 87 360 87 388H37C9 388 -13 366 -13 338Z " transform="matrix(0.33353510281026255,-0.4590716853505397,0.4590716853505397,0.33353510281026255,-141.98382058622565,258.91241003784467)" opacity="0.87"></path><path d="M642 742H692C720 742 742 764 742 792H692C664 792 642 770 642 742Z " transform="matrix(-0.172165768881192,-0.44850716182699313,0.44850716182699313,-0.172165768881192,467.1337189444812,1209.4181007161535)" opacity="0.74"></path><path d="M274 415H324C352 415 374 437 374 465H324C296 465 274 443 274 415Z " transform="matrix(0.6012858326789793,-0.17241593804284036,0.17241593804284036,0.6012858326789793,53.32037747316093,231.29699754712937)" opacity="0.96"></path></g></svg>