<svg xmlns="http://www.w3.org/2000/svg" xmlns:xlink="http://www.w3.org/1999/xlink" width="50" zoomAndPan="magnify" viewBox="0 0 37.5 37.499999" height="50" preserveAspectRatio="xMidYMid meet" version="1.0"><defs><clipPath id="id1"><path d="M 9 8.707031 L 21 8.707031 L 21 27 L 9 27 Z M 9 8.707031 " clip-rule="nonzero"/></clipPath><clipPath id="id2"><path d="M 14 26 L 18 26 L 18 28.957031 L 14 28.957031 Z M 14 26 " clip-rule="nonzero"/></clipPath><clipPath id="id3"><path d="M 9 8.707031 L 28.957031 8.707031 L 28.957031 28.957031 L 9 28.957031 Z M 9 8.707031 " clip-rule="nonzero"/></clipPath></defs><g clip-path="url(#id1)"><path fill="#f9b132" d="M 20.320312 19.292969 L 17.292969 26.339844 C 15.070312 26.707031 13.765625 26.105469 13.386719 25.914062 C 10.355469 24.363281 8.707031 19.421875 10.027344 13.386719 C 10.339844 11.941406 10.828125 10.433594 11.503906 8.890625 C 11.464844 9.859375 11.574219 11.210938 12.445312 12.257812 C 12.957031 12.875 13.554688 13.171875 14.074219 13.386719 C 14.230469 13.453125 14.378906 13.511719 14.515625 13.566406 C 17.109375 14.648438 19.449219 17.074219 20.320312 19.292969 Z M 20.320312 19.292969 " fill-opacity="1" fill-rule="nonzero"/></g><path fill="#e58e1a" d="M 14.703125 15.0625 C 15.222656 15.0625 15.644531 15.484375 15.644531 16 C 15.644531 16.515625 15.222656 16.933594 14.703125 16.933594 C 14.183594 16.933594 13.761719 16.515625 13.761719 16 C 13.761719 15.484375 14.183594 15.0625 14.703125 15.0625 Z M 14.703125 15.0625 " fill-opacity="1" fill-rule="nonzero"/><path fill="#e58e1a" d="M 17.714844 17.496094 C 18.566406 18.117188 18.820312 19.511719 18.089844 20.675781 C 18 20.230469 17.773438 19.425781 17.148438 18.617188 C 16.890625 18.277344 16.613281 18.007812 16.355469 17.796875 C 16.089844 17.578125 16.25 17.144531 16.59375 17.148438 C 16.949219 17.152344 17.355469 17.234375 17.714844 17.496094 Z M 17.714844 17.496094 " fill-opacity="1" fill-rule="nonzero"/><g clip-path="url(#id2)"><path fill="#604533" d="M 17.367188 26.457031 C 17.027344 26.699219 16.558594 26.988281 16.019531 27.222656 C 15.542969 27.429688 15.089844 27.566406 14.683594 27.65625 C 14.320312 27.738281 14.132812 28.144531 14.300781 28.476562 C 14.402344 28.675781 14.605469 28.796875 14.820312 28.796875 C 14.875 28.796875 14.933594 28.789062 14.992188 28.769531 C 15.40625 28.636719 15.890625 28.445312 16.398438 28.15625 C 17.054688 27.785156 17.550781 27.335938 17.902344 26.996094 C 17.898438 26.640625 17.761719 26.417969 17.367188 26.457031 Z M 17.367188 26.457031 " fill-opacity="1" fill-rule="nonzero"/></g><path fill="#4aaf8f" d="M 25.429688 15.8125 C 26.121094 14.871094 26.421875 13.953125 26.558594 13.382812 C 27.066406 14.992188 28.097656 20.164062 25.136719 23.820312 C 23.058594 26.390625 19.679688 26.710938 17.527344 26.660156 C 17.46875 26.59375 17.414062 26.523438 17.367188 26.457031 C 17.34375 26.417969 17.316406 26.378906 17.292969 26.339844 C 17.070312 25.960938 17 25.585938 16.960938 25.351562 C 16.609375 23.277344 18.203125 21.421875 18.84375 20.675781 C 19.316406 20.125 19.820312 19.667969 20.320312 19.292969 C 21.160156 18.664062 21.992188 18.257812 22.652344 17.992188 C 22.960938 17.871094 23.261719 17.730469 23.542969 17.554688 C 24.101562 17.207031 24.808594 16.65625 25.429688 15.8125 Z M 25.429688 15.8125 " fill-opacity="1" fill-rule="nonzero"/><path fill="#349370" d="M 26.558594 13.382812 C 26.875 13.96875 28.953125 17.980469 27.121094 22.171875 C 25.949219 24.863281 23.328125 27.257812 20.625 27.488281 C 20.109375 27.53125 18.816406 27.640625 17.902344 26.996094 C 17.769531 26.902344 17.640625 26.789062 17.527344 26.660156 C 18.8125 26.136719 21.28125 24.929688 23.359375 22.359375 C 26.320312 18.699219 26.542969 14.699219 26.558594 13.382812 Z M 26.558594 13.382812 " fill-opacity="1" fill-rule="nonzero"/><path fill="#ef9d26" d="M 10.027344 13.386719 C 8.707031 19.421875 10.355469 24.363281 13.386719 25.914062 C 13.765625 26.105469 15.070312 26.707031 17.292969 26.339844 C 12.496094 24.445312 10.546875 19.644531 10.027344 13.386719 Z M 10.027344 13.386719 " fill-opacity="1" fill-rule="nonzero"/><g clip-path="url(#id3)"><path fill="#3a322b" d="M 27.800781 16.390625 C 27.515625 15.011719 27.027344 13.941406 26.769531 13.441406 C 26.726562 13.359375 26.640625 13.3125 26.546875 13.324219 C 26.460938 13.335938 26.386719 13.398438 26.367188 13.484375 C 26.152344 14.292969 25.792969 15.042969 25.300781 15.71875 C 24.800781 16.394531 24.183594 16.96875 23.460938 17.417969 C 23.210938 17.574219 22.929688 17.710938 22.59375 17.84375 C 21.792969 18.164062 21.058594 18.5625 20.390625 19.042969 C 19.410156 16.742188 17.050781 14.453125 14.578125 13.421875 C 14.511719 13.390625 14.441406 13.363281 14.371094 13.335938 C 13.820312 13.113281 13.136719 12.835938 12.570312 12.15625 C 11.914062 11.367188 11.609375 10.273438 11.664062 8.90625 C 11.667969 8.839844 11.636719 8.777344 11.574219 8.746094 C 11.492188 8.707031 11.394531 8.746094 11.359375 8.828125 C 9.722656 12.542969 9.085938 16.402344 9.5625 19.691406 C 10.007812 22.746094 11.375 25.0625 13.3125 26.054688 C 13.773438 26.289062 14.644531 26.617188 15.929688 26.617188 C 16.242188 26.617188 16.578125 26.597656 16.9375 26.554688 C 16.671875 26.71875 16.339844 26.90625 15.957031 27.074219 C 15.539062 27.257812 15.097656 27.402344 14.648438 27.5 C 14.386719 27.558594 14.179688 27.753906 14.105469 28.023438 C 14.0625 28.171875 14.070312 28.324219 14.121094 28.46875 C 14.234375 28.773438 14.515625 28.957031 14.816406 28.957031 C 14.890625 28.957031 14.964844 28.945312 15.039062 28.921875 C 15.539062 28.765625 16.023438 28.554688 16.476562 28.296875 C 17.085938 27.953125 17.5625 27.542969 17.921875 27.203125 C 18.550781 27.597656 19.3125 27.683594 19.910156 27.683594 C 20.207031 27.683594 20.460938 27.664062 20.636719 27.648438 C 21.957031 27.535156 23.3125 26.921875 24.550781 25.875 C 25.707031 24.898438 26.671875 23.605469 27.269531 22.234375 C 28.050781 20.441406 28.230469 18.472656 27.800781 16.390625 Z M 20.433594 19.410156 C 21.117188 18.898438 21.878906 18.472656 22.714844 18.144531 C 23.066406 18.003906 23.367188 17.855469 23.628906 17.691406 C 24.386719 17.21875 25.035156 16.617188 25.558594 15.90625 C 25.867188 15.484375 26.125 15.035156 26.332031 14.558594 C 26.140625 16.574219 25.445312 19.527344 23.234375 22.257812 C 21.375 24.558594 19.148438 25.8125 17.574219 26.46875 C 17.242188 26.042969 17.164062 25.582031 17.121094 25.324219 C 16.78125 23.324219 18.3125 21.542969 18.964844 20.78125 C 19.359375 20.289062 19.878906 19.777344 20.433594 19.410156 Z M 13.460938 25.769531 C 11.613281 24.824219 10.308594 22.59375 9.878906 19.644531 C 9.441406 16.625 9.964844 13.109375 11.351562 9.671875 C 11.417969 10.765625 11.746094 11.667969 12.324219 12.363281 C 12.941406 13.105469 13.667969 13.398438 14.25 13.632812 C 14.320312 13.660156 14.390625 13.6875 14.453125 13.714844 C 16.882812 14.730469 19.195312 16.988281 20.125 19.238281 C 19.613281 19.636719 19.144531 20.078125 18.722656 20.570312 C 18.097656 21.296875 16.4375 23.230469 16.804688 25.378906 C 16.835938 25.5625 16.890625 25.875 17.046875 26.214844 C 15.199219 26.472656 14.011719 26.050781 13.460938 25.769531 Z M 16.320312 28.015625 C 15.882812 28.261719 15.421875 28.464844 14.941406 28.617188 C 14.75 28.679688 14.535156 28.585938 14.445312 28.40625 C 14.386719 28.289062 14.382812 28.15625 14.441406 28.039062 C 14.496094 27.921875 14.597656 27.839844 14.71875 27.8125 C 15.1875 27.710938 15.648438 27.558594 16.085938 27.367188 C 16.605469 27.140625 17.035156 26.878906 17.332031 26.675781 C 17.355469 26.707031 17.378906 26.734375 17.402344 26.761719 C 17.402344 26.761719 17.402344 26.761719 17.402344 26.765625 C 17.40625 26.765625 17.40625 26.765625 17.40625 26.765625 C 17.484375 26.855469 17.570312 26.9375 17.65625 27.011719 C 17.316406 27.328125 16.875 27.703125 16.320312 28.015625 Z M 26.976562 22.105469 C 25.746094 24.925781 23.066406 27.121094 20.609375 27.328125 C 20.101562 27.371094 18.859375 27.476562 17.996094 26.867188 C 17.992188 26.863281 17.992188 26.863281 17.992188 26.863281 C 17.929688 26.820312 17.867188 26.769531 17.808594 26.71875 C 19.410156 26.035156 21.625 24.757812 23.484375 22.460938 C 25.960938 19.398438 26.578125 16.070312 26.695312 14.027344 C 27.324219 15.425781 28.449219 18.730469 26.976562 22.105469 Z M 26.976562 22.105469 " fill-opacity="1" fill-rule="nonzero"/></g><path fill="#3a322b" d="M 14.703125 14.902344 C 14.097656 14.902344 13.601562 15.394531 13.601562 16 C 13.601562 16.605469 14.097656 17.09375 14.703125 17.09375 C 15.3125 17.09375 15.804688 16.605469 15.804688 16 C 15.804688 15.394531 15.3125 14.902344 14.703125 14.902344 Z M 14.703125 16.773438 C 14.273438 16.773438 13.925781 16.425781 13.925781 16 C 13.925781 15.574219 14.273438 15.226562 14.703125 15.226562 C 15.132812 15.226562 15.484375 15.574219 15.484375 16 C 15.484375 16.425781 15.132812 16.773438 14.703125 16.773438 Z M 14.703125 16.773438 " fill-opacity="1" fill-rule="nonzero"/><path fill="#3a322b" d="M 17.933594 20.707031 C 17.945312 20.773438 17.996094 20.820312 18.0625 20.832031 C 18.070312 20.835938 18.082031 20.835938 18.089844 20.835938 C 18.144531 20.835938 18.199219 20.808594 18.226562 20.761719 C 18.589844 20.179688 18.742188 19.503906 18.65625 18.859375 C 18.570312 18.238281 18.261719 17.695312 17.808594 17.367188 C 17.472656 17.121094 17.066406 16.992188 16.597656 16.988281 C 16.59375 16.988281 16.59375 16.988281 16.589844 16.988281 C 16.367188 16.988281 16.171875 17.125 16.09375 17.339844 C 16.015625 17.550781 16.078125 17.777344 16.253906 17.921875 C 16.539062 18.15625 16.796875 18.421875 17.023438 18.714844 C 17.46875 19.296875 17.785156 19.984375 17.933594 20.707031 Z M 16.457031 17.671875 C 16.355469 17.589844 16.382812 17.480469 16.394531 17.449219 C 16.417969 17.382812 16.484375 17.308594 16.589844 17.308594 C 16.589844 17.308594 16.59375 17.308594 16.59375 17.308594 C 16.992188 17.3125 17.339844 17.421875 17.621094 17.625 C 18.355469 18.160156 18.554688 19.265625 18.144531 20.226562 C 17.964844 19.609375 17.667969 19.027344 17.277344 18.519531 C 17.039062 18.207031 16.761719 17.921875 16.457031 17.671875 Z M 16.457031 17.671875 " fill-opacity="1" fill-rule="nonzero"/></svg>